<svg width="24" height="24" viewBox="0 0 24 24" fill="none" xmlns="http://www.w3.org/2000/svg">
<path d="M12.0045 5.4C14.1045 5.4 16.1045 6.2 17.6045 7.7C20.7045 10.8 20.7045 15.9 17.6045 19C15.8045 20.9 13.3045 21.6 10.9045 21.3L11.4045 19.3C13.1045 19.5 14.9045 18.9 16.2045 17.6C18.5045 15.3 18.5045 11.5 16.2045 9.1C15.1045 8 13.5045 7.4 12.0045 7.4V12L7.00455 7L12.0045 2V5.4ZM6.30455 19C3.70455 16.4 3.30455 12.4 5.10455 9.3L6.60455 10.8C5.50455 13 5.90455 15.8 7.80455 17.6C8.30455 18.1 8.90455 18.5 9.60455 18.8L9.00455 20.8C8.00455 20.4 7.10455 19.8 6.30455 19Z" fill="#EC3D30"/>
</svg>
