<svg width="24" height="24" viewBox="0 0 24 24" fill="none" xmlns="http://www.w3.org/2000/svg">
<path d="M11.0519 14.439H7.66146C7.46082 14.439 7.29834 14.6014 7.29834 14.8021V20.0662C7.29834 20.2669 7.46082 20.4294 7.66146 20.4294H11.0519C11.2526 20.4294 11.4148 20.2669 11.4148 20.0662V14.8018C11.4148 14.6012 11.2523 14.439 11.0519 14.439Z" fill="#3F4145"/>
<path d="M16.3384 3.5708H12.948C12.7473 3.5708 12.5848 3.73328 12.5848 3.93392V20.0662C12.5848 20.2669 12.7473 20.4294 12.948 20.4294H16.3384C16.5391 20.4294 16.7016 20.2669 16.7016 20.0662V3.93392C16.7016 3.73328 16.5391 3.5708 16.3384 3.5708Z" fill="#3F4145"/>
<path d="M21.652 8.47168H18.2616C18.0609 8.47168 17.8984 8.63416 17.8984 8.8348V20.0661C17.8984 20.2667 18.0609 20.4292 18.2616 20.4292H21.6518C21.8524 20.4292 22.0149 20.2667 22.0149 20.0661V8.8348C22.0149 8.6344 21.8524 8.47168 21.652 8.47168Z" fill="#3F4145"/>
<path d="M5.73834 8.47168H2.34786C2.14722 8.47168 1.98474 8.63416 1.98474 8.8348V20.0661C1.98474 20.2667 2.14722 20.4292 2.34786 20.4292H5.73834C5.93898 20.4292 6.10146 20.2667 6.10146 20.0661V8.8348C6.10146 8.6344 5.93898 8.47168 5.73834 8.47168Z" fill="#3F4145"/>
</svg>
